PathFileType	4	(X/Y/Z)	C:/Users/opensim2020/Desktop/walking_exp_matlab/subject06_walking20_straight_03.trc																																																																																																																															
DataRate	CameraRate	NumFrames	NumMarkers	Units	OrigDataRate	OrigDataStartFrame	OrigNumFrames																																																																																																																											
100	100	8	43	mm	100	1730	132																																																																																																																											
Frame#	Time	LFHD			RFHD			LBHD			RBHD			C7			T10			CLAV			STRN			RBAK			LSHO			LUPA			LELB			LFRM			LWRA			LWRB			LFIN			RSHO			RUPA			RELB			RFRM			RWRA			RWRB			RFIN			LASI			RASI			LPSI			RPSI			LTHI			LKNE			LTIB			LANK			LHEE			LTOE			RTHI			RKNE			RTIB			RANK			RHEE			RTOE			*39			*40			*41			*42		
		X1	Y1	Z1	X2	Y2	Z2	X3	Y3	Z3	X4	Y4	Z4	X5	Y5	Z5	X6	Y6	Z6	X7	Y7	Z7	X8	Y8	Z8	X9	Y9	Z9	X10	Y10	Z10	X11	Y11	Z11	X12	Y12	Z12	X13	Y13	Z13	X14	Y14	Z14	X15	Y15	Z15	X16	Y16	Z16	X17	Y17	Z17	X18	Y18	Z18	X19	Y19	Z19	X20	Y20	Z20	X21	Y21	Z21	X22	Y22	Z22	X23	Y23	Z23	X24	Y24	Z24	X25	Y25	Z25	X26	Y26	Z26	X27	Y27	Z27	X28	Y28	Z28	X29	Y29	Z29	X30	Y30	Z30	X31	Y31	Z31	X32	Y32	Z32	X33	Y33	Z33	X34	Y34	Z34	X35	Y35	Z35	X36	Y36	Z36	X37	Y37	Z37	X38	Y38	Z38	X39	Y39	Z39	X40	Y40	Z40	X41	Y41	Z41	X42	Y42	Z42	X43	Y43	Z43
																																																																																																																																		
50	0.49	-302.15256	1660.9679	-1050.2511	-309.97525	1645.77686	-919.58429	-436.18674	1611.14709	-1060.21594	-442.45737	1601.05469	-931.61639	-445.13367	1453.3313	-1002.72278	-503.22366	1129.36218	-994.19714	-340.34854	1368.70056	-1001.97363	-312.69287	1191.29419	-1008.50195	-527.88635	1289.85095	-920.49591	-396.30063	1403.6991	-1163.64441	-418.8028	1201.06152	-1230.09082	-432.37286	1087.96582	-1236.73291	-403.34155	940.48083	-1261.41443	-323.77713	834.02588	-1228.61438	-388.6568	821.62476	-1256.54956	-336.77328	747.43414	-1264.29761	-382.38235	1406.10095	-840.60352	-445.04822	1219.93604	-745.07983	-451.87436	1098.99438	-727.44849	-429.00198	982.09833	-710.06946	-356.5191	851.0625	-746.4101	-408.63092	846.3692	-704.26434	-364.50366	774.88293	-704.71869	-339.2637	956.56903	-1102.44885	-338.20605	962.48517	-884.37976	-495.61212	991.17932	-1076.34875	-487.76025	998.89044	-908.27521	-342.98279	653.17511	-1170.08984	-286.1752	500.06	-1147.97302	-401.73969	278.26437	-1137.17334	-469.88168	120.10391	-1098.45398	-508.229	116.9823	-1047.78271	-349.52655	45.8804	-1112.32788	-405.26593	629.30341	-840.78625	-405.92456	504.27917	-869.76575	-491.33435	248.12576	-881.21021	-534.62634	68.70379	-937.08514	-578.89673	47.84309	-980.74042	-384.6922	32.71877	-941.97876	-404.30209	1700.24194	-996.01636	NaN	NaN	NaN	NaN	NaN	NaN	NaN	NaN	NaN
51	0.5	-288.73376	1659.55188	-1050.29956	-296.42505	1644.51758	-919.73553	-422.83438	1609.69995	-1060.17712	-428.91803	1599.75256	-931.53491	-431.85498	1452.13367	-1002.51617	-489.96555	1128.03259	-994.07275	-327.03766	1367.28394	-1001.73456	-299.54001	1189.8855	-1008.01965	-514.62457	1288.56506	-919.83038	-383.12106	1402.21472	-1163.48303	-408.31427	1199.46948	-1229.79272	-423.46823	1086.77368	-1236.47095	-400.53955	938.23846	-1261.48865	-325.14664	828.19714	-1230.21045	-391.82547	818.90515	-1256.77344	-344.08188	742.03955	-1265.39954	-369.06073	1405.1012	-840.40869	-430.39178	1218.77222	-744.28644	-435.11429	1097.9801	-726.00214	-408.54755	982.06122	-708.84668	-331.86035	853.79834	-745.83112	-383.42667	847.25977	-703.36267	-336.77451	777.48792	-704.17804	-325.14789	955.54297	-1101.73376	-325.73758	960.94989	-883.65271	-481.71799	989.83942	-1077	-474.79684	997.39252	-909.05188	-325.50482	653.12671	-1170.29407	-265.85864	501.25772	-1147.19531	-370.69879	273.12753	-1137.16443	-430.01364	111.27766	-1098.42358	-468.3342	105.82137	-1047.80737	-305.59061	44.28515	-1111.64014	-396.8667	628.00891	-841.28748	-399.94531	502.89618	-869.7384	-489.07791	247.9299	-881.60699	-534.20135	69.12869	-937.40503	-578.42731	48.34984	-981.39636	-384.6044	32.5841	-941.66919	-390.84872	1698.93408	-996.01263	NaN	NaN	NaN	NaN	NaN	NaN	NaN	NaN	NaN
52	0.51	-275.31891	1657.9043	-1050.53687	-282.95831	1643.0332	-919.82751	-409.41983	1608.00952	-1060.16162	-415.31088	1598.17505	-931.48486	-418.35632	1450.49548	-1002.34076	-476.77576	1126.38574	-994.04718	-313.69421	1365.64526	-1001.56256	-286.32913	1188.22656	-1007.4873	-501.314	1287.24109	-919.34991	-369.8732	1400.38403	-1163.33472	-397.38654	1197.87219	-1229.38257	-414.4996	1085.50623	-1236.39417	-397.59644	936.11243	-1261.60535	-328.18774	822.1745	-1230.86487	-394.80411	816.55688	-1257.07495	-351.33118	737.40656	-1266.51001	-355.7291	1403.8197	-840.28796	-415.59528	1217.5564	-743.23535	-418.42087	1096.80591	-724.66168	-388.25018	981.97534	-707.69269	-307.38281	856.72522	-745.43542	-358.50201	848.14423	-702.74371	-309.22855	780.32874	-703.77466	-310.8942	954.37451	-1101.1051	-313.25583	959.32513	-883.14685	-468.14679	988.25415	-1077.7677	-462.54541	995.91974	-909.45398	-307.83734	652.97882	-1170.42554	-246.15715	501.92484	-1146.41418	-339.98862	268.08902	-1137.2135	-389.55853	102.88701	-1098.35864	-428.01694	95.46195	-1048.07019	-261.56479	43.25724	-1110.63855	-388.36926	626.67493	-841.8454	-393.93524	501.52432	-869.74811	-486.73972	247.72813	-882.19208	-533.77014	69.58894	-938.00909	-578.65643	49.44093	-982.1098	-384.49307	32.44331	-941.33826	-377.40063	1697.26526	-996.12604	NaN	NaN	NaN	NaN	NaN	NaN	NaN	NaN	NaN
53	0.52	-261.92682	1655.96399	-1050.7229	-269.30188	1641.28577	-919.98468	-395.85477	1606.01978	-1060.13403	-401.78537	1596.38843	-931.42273	-404.82715	1448.75586	-1002.23901	-463.42111	1124.72302	-994.13348	-300.27374	1363.81091	-1001.4364	-273.23413	1186.34436	-1006.99805	-487.96085	1285.69141	-918.95844	-356.53073	1398.2533	-1163.22168	-386.70291	1195.96509	-1228.99084	-405.19647	1084.05115	-1236.28699	-394.27887	934.30603	-1261.7854	-329.33054	817.55231	-1232.13232	-397.43341	814.80737	-1257.50757	-358.28412	733.44397	-1267.60815	-342.31473	1402.23828	-840.22473	-400.81744	1216.04468	-742.4632	-401.89706	1095.42761	-723.40741	-368.09897	981.79498	-706.65869	-283.11664	859.6629	-745.06622	-334.12991	849.2627	-702.16089	-281.93954	783.284	-703.3775	-296.65179	952.95544	-1100.56848	-300.34375	957.60162	-882.54401	-453.83688	986.20392	-1078.48413	-449.87076	994.11438	-910.04083	-289.34955	653.05927	-1170.43311	-227.08366	502.08478	-1145.72461	-308.81293	262.91522	-1137.11145	-348.69946	95.12645	-1098.40796	-387.20523	85.68865	-1048.36584	-217.36992	42.79263	-1109.46753	-379.75186	625.23895	-842.43231	-387.7356	500.08087	-869.79425	-484.32321	247.60834	-882.71747	-533.3092	70.05974	-938.86707	-578.08575	50.31144	-982.99078	-384.2702	32.27958	-940.92798	-363.86572	1695.44348	-996.28583	NaN	NaN	NaN	NaN	NaN	NaN	NaN	NaN	NaN
54	0.53	-248.29169	1653.90479	-1050.87549	-255.71938	1639.35999	-920.10291	-382.27939	1603.9115	-1060.23132	-388.0784	1594.38684	-931.52661	-391.27206	1446.81885	-1002.2226	-449.97461	1122.65674	-994.27783	-286.75168	1361.7771	-1001.29535	-259.91049	1184.27222	-1006.64441	-474.66812	1284.1084	-918.69061	-342.91879	1396.14856	-1163.26538	-375.52948	1194.03564	-1229.12756	-395.97452	1082.625	-1236.12927	-390.85989	932.88599	-1262.23254	-330.34317	813.4519	-1233.79041	-399.55182	813.56866	-1258.32007	-364.74191	730.28271	-1268.79468	-328.92136	1400.42041	-840.24805	-386.241	1214.22705	-742.02692	-385.48239	1093.89099	-722.24683	-348.20294	981.50037	-705.7132	-259.27133	862.61682	-744.74536	-309.68713	850.2923	-701.54578	-255.12874	786.49377	-703.1264	-282.36761	951.32428	-1100.13635	-287.3642	955.60779	-882.04175	-439.78955	984.04236	-1079.21252	-436.8793	992.01654	-910.86957	-272.68344	651.88721	-1170.43579	-208.65062	501.79373	-1145.14172	-277.35904	257.86258	-1137.02563	-307.53207	88.06333	-1098.50403	-345.87015	76.76534	-1048.68945	-173.29987	42.90229	-1107.93347	-370.92197	623.70953	-842.94403	-381.50089	498.61142	-869.94983	-481.71451	247.41064	-883.38159	-532.5882	70.55475	-939.65356	-577.41382	51.13673	-983.95721	-383.93082	32.10736	-940.5965	-350.29013	1693.38159	-996.46362	NaN	NaN	NaN	NaN	NaN	NaN	NaN	NaN	NaN
55	0.54	-234.56551	1651.64124	-1051.02588	-242.02753	1637.16211	-920.2981	-368.63162	1601.63867	-1060.35046	-374.40915	1592.19019	-931.60687	-377.68188	1444.66138	-1002.30322	-436.41702	1120.59851	-994.53583	-273.1644	1359.49109	-1001.29175	-246.43987	1182.05945	-1006.33154	-461.28546	1282.2533	-918.52771	-329.15231	1393.65405	-1163.35706	-364.02875	1191.92859	-1229.0708	-386.6655	1081.01477	-1235.96033	-387.03653	931.56317	-1262.62231	-331.77606	809.37616	-1234.97424	-400.83777	812.73077	-1259.48816	-370.30496	727.65051	-1269.73218	-315.4838	1398.35535	-840.35327	-371.2868	1212.09937	-741.37836	-369.22668	1092.10193	-721.18292	-328.50992	981.15314	-704.84503	-235.73883	865.64539	-744.48383	-285.62488	851.3548	-701.42731	-228.60309	789.78845	-702.95801	-268.04877	949.43811	-1099.82446	-274.40338	953.479	-881.55951	-425.4982	981.61493	-1079.99963	-423.78876	989.70972	-911.53784	-257.87997	649.47046	-1170.44434	-190.90034	501.05118	-1144.5863	-246.09183	253.18848	-1137.08569	-266.05331	81.78973	-1098.63013	-304.5369	68.83195	-1049.27881	-129.47643	43.6446	-1106.07007	-361.8685	622.21423	-843.5127	-375.14496	497.14005	-870.05591	-478.94989	247.23384	-883.98444	-531.88232	71.1175	-940.39429	-576.78607	52.18046	-984.91095	-383.73248	31.95709	-940.30536	-336.57196	1691.14343	-996.62482	NaN	NaN	NaN	NaN	NaN	NaN	NaN	NaN	NaN
56	0.55	-220.81657	1649.20532	-1051.21716	-228.30244	1634.69568	-920.31171	-354.93967	1599.16724	-1060.47034	-360.68445	1589.84619	-931.79376	-364.01575	1442.29065	-1002.50568	-422.74692	1118.20776	-994.85736	-259.5658	1357.04333	-1001.32147	-232.88196	1179.64429	-1006.10077	-447.7662	1280.06799	-918.53473	-315.17862	1391.06116	-1163.57324	-352.55786	1189.66931	-1229.03564	-377.37711	1079.37402	-1235.96484	-382.94614	930.44849	-1263.02966	-332.8439	805.91199	-1236.10962	-401.42029	812.35522	-1260.7196	-375.15591	725.70001	-1270.83118	-302.03427	1396.11951	-840.45782	-356.332	1209.71057	-740.85815	-353.11105	1090.16956	-720.21698	-309.10431	980.70789	-704.07281	-212.63641	868.66107	-744.26471	-261.37524	852.49634	-701.47687	-202.68787	793.14929	-702.77771	-253.57117	947.23224	-1099.58118	-261.2131	951.16357	-881.17957	-411.05841	979.04999	-1080.82605	-410.2092	987.25317	-912.47174	-241.66441	647.59637	-1170.62463	-173.91913	499.8045	-1144.14331	-215.10428	248.9212	-1137.26025	-224.72304	76.59167	-1098.87927	-262.97858	61.96984	-1049.70825	-84.89416	45.79871	-1103.88318	-352.56146	620.5365	-844.04218	-368.55646	495.73111	-870.1582	-476.0058	247.02374	-884.54285	-531.25092	71.74313	-941.14148	-576.17181	53.17885	-985.83112	-383.28638	31.71466	-939.98907	-322.82367	1688.75134	-996.85522	NaN	NaN	NaN	NaN	NaN	NaN	NaN	NaN	NaN
57	0.56	-207.13049	1646.55994	-1051.47437	-214.50211	1632.15149	-920.59308	-341.10294	1596.58459	-1060.69885	-346.98108	1587.23853	-931.95361	-350.30344	1439.69543	-1002.76373	-409.06439	1115.57056	-995.1839	-245.85245	1354.43787	-1001.41003	-219.11044	1177.14294	-1005.97186	-434.31689	1277.6145	-918.63361	-301.07428	1388.2561	-1163.82422	-340.93463	1187.32959	-1228.84326	-368.43857	1077.85962	-1235.72705	-378.55133	929.48499	-1263.5387	-332.83475	803.04529	-1236.94092	-401.0975	812.25513	-1262.01929	-379.02136	724.43475	-1272.02832	-288.57416	1393.68018	-840.61865	-341.43121	1207.19788	-740.63464	-337.09409	1088.03992	-719.38824	-290.01523	980.14606	-703.40771	-189.71709	871.82813	-743.96417	-238.01567	853.70117	-701.37469	-177.33862	796.57074	-702.75183	-238.81775	944.9325	-1099.30359	-247.74477	948.73376	-880.8905	-396.54007	976.34296	-1081.63281	-396.43112	984.59271	-913.37726	-226.75975	644.95624	-1170.41028	-157.46265	498.1788	-1143.61511	-184.35658	245.16928	-1137.33789	-183.54219	72.47715	-1098.85864	-221.6333	56.20562	-1050.29053	-42.01602	47.96048	-1101.57532	-343.08072	618.76947	-844.48578	-361.78223	494.20505	-870.30804	-472.97253	246.98749	-885.06036	-530.47253	72.50014	-941.86053	-575.49988	54.39605	-986.79736	-383.08643	31.56191	-940.04034	-309.05096	1686.18579	-997.06775	NaN	NaN	NaN	NaN	NaN	NaN	NaN	NaN	NaN
